<mxfile host="app.diagrams.net" agent="Mozilla/5.0 (Macintosh; Intel Mac OS X 10_15_7) AppleWebKit/537.36 (KHTML, like Gecko) Chrome/139.0.0.0 Safari/537.36" version="28.2.0">
  <diagram name="Page-1" id="JzHTwccwRqvfI56NlwAD">
    <mxGraphModel dx="4757" dy="1381" grid="1" gridSize="10" guides="1" tooltips="1" connect="1" arrows="1" fold="1" page="1" pageScale="1" pageWidth="827" pageHeight="1169" math="0" shadow="0">
      <root>
        <mxCell id="0" />
        <mxCell id="1" parent="0" />
        <mxCell id="LZWmllExvn1Czz4eNUA1-133" value="" style="rounded=0;whiteSpace=wrap;html=1;strokeWidth=9;gradientColor=none;fillStyle=solid;" vertex="1" parent="1">
          <mxGeometry x="-550" y="1800" width="3140" height="1760" as="geometry" />
        </mxCell>
        <mxCell id="LZWmllExvn1Czz4eNUA1-134" value="&lt;font style=&quot;font-size: 20px;&quot;&gt;Branch&lt;/font&gt;" style="rounded=0;whiteSpace=wrap;html=1;" vertex="1" parent="1">
          <mxGeometry x="280" y="2230" width="160" height="90" as="geometry" />
        </mxCell>
        <mxCell id="LZWmllExvn1Czz4eNUA1-135" value="Address" style="ellipse;whiteSpace=wrap;html=1;" vertex="1" parent="1">
          <mxGeometry y="2090" width="110" height="70" as="geometry" />
        </mxCell>
        <mxCell id="LZWmllExvn1Czz4eNUA1-136" value="&lt;u&gt;Name&lt;/u&gt;" style="ellipse;whiteSpace=wrap;html=1;" vertex="1" parent="1">
          <mxGeometry x="-160" y="2090" width="110" height="70" as="geometry" />
        </mxCell>
        <mxCell id="LZWmllExvn1Czz4eNUA1-137" value="No." style="ellipse;whiteSpace=wrap;html=1;" vertex="1" parent="1">
          <mxGeometry x="-300" y="1930" width="110" height="70" as="geometry" />
        </mxCell>
        <mxCell id="LZWmllExvn1Czz4eNUA1-138" value="Street" style="ellipse;whiteSpace=wrap;html=1;" vertex="1" parent="1">
          <mxGeometry x="-150" y="1930" width="110" height="70" as="geometry" />
        </mxCell>
        <mxCell id="LZWmllExvn1Czz4eNUA1-139" value="District" style="ellipse;whiteSpace=wrap;html=1;" vertex="1" parent="1">
          <mxGeometry y="1930" width="110" height="70" as="geometry" />
        </mxCell>
        <mxCell id="LZWmllExvn1Czz4eNUA1-140" value="City" style="ellipse;whiteSpace=wrap;html=1;" vertex="1" parent="1">
          <mxGeometry x="150" y="1930" width="110" height="70" as="geometry" />
        </mxCell>
        <mxCell id="LZWmllExvn1Czz4eNUA1-141" value="Region" style="ellipse;whiteSpace=wrap;html=1;" vertex="1" parent="1">
          <mxGeometry x="300" y="1930" width="110" height="70" as="geometry" />
        </mxCell>
        <mxCell id="LZWmllExvn1Czz4eNUA1-142" value="" style="endArrow=none;html=1;rounded=0;entryX=0.5;entryY=1;entryDx=0;entryDy=0;exitX=0.5;exitY=0;exitDx=0;exitDy=0;" edge="1" parent="1" source="LZWmllExvn1Czz4eNUA1-135" target="LZWmllExvn1Czz4eNUA1-137">
          <mxGeometry width="50" height="50" relative="1" as="geometry">
            <mxPoint x="110" y="2140" as="sourcePoint" />
            <mxPoint x="160" y="2090" as="targetPoint" />
          </mxGeometry>
        </mxCell>
        <mxCell id="LZWmllExvn1Czz4eNUA1-143" value="" style="endArrow=none;html=1;rounded=0;entryX=0.5;entryY=1;entryDx=0;entryDy=0;exitX=0.5;exitY=0;exitDx=0;exitDy=0;" edge="1" parent="1" source="LZWmllExvn1Czz4eNUA1-135" target="LZWmllExvn1Czz4eNUA1-138">
          <mxGeometry width="50" height="50" relative="1" as="geometry">
            <mxPoint x="350" y="2170" as="sourcePoint" />
            <mxPoint x="50" y="2080" as="targetPoint" />
          </mxGeometry>
        </mxCell>
        <mxCell id="LZWmllExvn1Czz4eNUA1-144" value="" style="endArrow=none;html=1;rounded=0;entryX=0.5;entryY=1;entryDx=0;entryDy=0;exitX=0.5;exitY=0;exitDx=0;exitDy=0;" edge="1" parent="1" source="LZWmllExvn1Czz4eNUA1-135" target="LZWmllExvn1Czz4eNUA1-139">
          <mxGeometry width="50" height="50" relative="1" as="geometry">
            <mxPoint x="200" y="2180" as="sourcePoint" />
            <mxPoint x="50" y="2090" as="targetPoint" />
          </mxGeometry>
        </mxCell>
        <mxCell id="LZWmllExvn1Czz4eNUA1-145" value="" style="endArrow=none;html=1;rounded=0;entryX=0.5;entryY=1;entryDx=0;entryDy=0;exitX=0.5;exitY=0;exitDx=0;exitDy=0;" edge="1" parent="1" source="LZWmllExvn1Czz4eNUA1-135" target="LZWmllExvn1Czz4eNUA1-140">
          <mxGeometry width="50" height="50" relative="1" as="geometry">
            <mxPoint x="50" y="2180" as="sourcePoint" />
            <mxPoint x="50" y="2090" as="targetPoint" />
          </mxGeometry>
        </mxCell>
        <mxCell id="LZWmllExvn1Czz4eNUA1-146" value="" style="endArrow=none;html=1;rounded=0;entryX=0.5;entryY=1;entryDx=0;entryDy=0;exitX=0.5;exitY=0;exitDx=0;exitDy=0;" edge="1" parent="1" source="LZWmllExvn1Czz4eNUA1-135" target="LZWmllExvn1Czz4eNUA1-141">
          <mxGeometry width="50" height="50" relative="1" as="geometry">
            <mxPoint x="50" y="2180" as="sourcePoint" />
            <mxPoint x="200" y="2090" as="targetPoint" />
          </mxGeometry>
        </mxCell>
        <mxCell id="LZWmllExvn1Czz4eNUA1-147" value="" style="ellipse;whiteSpace=wrap;html=1;" vertex="1" parent="1">
          <mxGeometry x="214" y="2090" width="110" height="70" as="geometry" />
        </mxCell>
        <mxCell id="LZWmllExvn1Czz4eNUA1-148" value="Phone" style="ellipse;whiteSpace=wrap;html=1;" vertex="1" parent="1">
          <mxGeometry x="219" y="2095" width="100" height="60" as="geometry" />
        </mxCell>
        <mxCell id="LZWmllExvn1Czz4eNUA1-149" value="" style="ellipse;whiteSpace=wrap;html=1;" vertex="1" parent="1">
          <mxGeometry x="400" y="2090" width="110" height="70" as="geometry" />
        </mxCell>
        <mxCell id="LZWmllExvn1Czz4eNUA1-150" value="Fax" style="ellipse;whiteSpace=wrap;html=1;" vertex="1" parent="1">
          <mxGeometry x="405" y="2095" width="100" height="60" as="geometry" />
        </mxCell>
        <mxCell id="LZWmllExvn1Czz4eNUA1-151" value="Email" style="ellipse;whiteSpace=wrap;html=1;" vertex="1" parent="1">
          <mxGeometry x="600" y="2090" width="110" height="70" as="geometry" />
        </mxCell>
        <mxCell id="LZWmllExvn1Czz4eNUA1-152" value="NumberOfEmp" style="ellipse;whiteSpace=wrap;html=1;dashed=1;" vertex="1" parent="1">
          <mxGeometry x="790" y="2090" width="110" height="70" as="geometry" />
        </mxCell>
        <mxCell id="LZWmllExvn1Czz4eNUA1-153" value="" style="endArrow=none;html=1;rounded=0;entryX=0.5;entryY=1;entryDx=0;entryDy=0;exitX=0.5;exitY=0;exitDx=0;exitDy=0;" edge="1" parent="1" source="LZWmllExvn1Czz4eNUA1-134" target="LZWmllExvn1Czz4eNUA1-136">
          <mxGeometry width="50" height="50" relative="1" as="geometry">
            <mxPoint x="420" y="2280" as="sourcePoint" />
            <mxPoint x="470" y="2230" as="targetPoint" />
          </mxGeometry>
        </mxCell>
        <mxCell id="LZWmllExvn1Czz4eNUA1-154" value="" style="endArrow=none;html=1;rounded=0;entryX=0.5;entryY=1;entryDx=0;entryDy=0;exitX=0.5;exitY=0;exitDx=0;exitDy=0;" edge="1" parent="1" source="LZWmllExvn1Czz4eNUA1-134" target="LZWmllExvn1Czz4eNUA1-135">
          <mxGeometry width="50" height="50" relative="1" as="geometry">
            <mxPoint x="625" y="2260" as="sourcePoint" />
            <mxPoint x="160" y="2190" as="targetPoint" />
          </mxGeometry>
        </mxCell>
        <mxCell id="LZWmllExvn1Czz4eNUA1-155" value="" style="endArrow=none;html=1;rounded=0;entryX=0.5;entryY=1;entryDx=0;entryDy=0;exitX=0.5;exitY=1;exitDx=0;exitDy=0;" edge="1" parent="1" source="LZWmllExvn1Czz4eNUA1-147">
          <mxGeometry width="50" height="50" relative="1" as="geometry">
            <mxPoint x="665" y="2300" as="sourcePoint" />
            <mxPoint x="360" y="2230" as="targetPoint" />
          </mxGeometry>
        </mxCell>
        <mxCell id="LZWmllExvn1Czz4eNUA1-156" value="" style="endArrow=none;html=1;rounded=0;entryX=0.5;entryY=0;entryDx=0;entryDy=0;exitX=0.5;exitY=1;exitDx=0;exitDy=0;" edge="1" parent="1" source="LZWmllExvn1Czz4eNUA1-149" target="LZWmllExvn1Czz4eNUA1-134">
          <mxGeometry width="50" height="50" relative="1" as="geometry">
            <mxPoint x="300" y="2180" as="sourcePoint" />
            <mxPoint x="391" y="2250" as="targetPoint" />
          </mxGeometry>
        </mxCell>
        <mxCell id="LZWmllExvn1Czz4eNUA1-157" value="" style="endArrow=none;html=1;rounded=0;entryX=0.5;entryY=0;entryDx=0;entryDy=0;exitX=0.5;exitY=1;exitDx=0;exitDy=0;" edge="1" parent="1" source="LZWmllExvn1Czz4eNUA1-151" target="LZWmllExvn1Czz4eNUA1-134">
          <mxGeometry width="50" height="50" relative="1" as="geometry">
            <mxPoint x="485" y="2230" as="sourcePoint" />
            <mxPoint x="390" y="2300" as="targetPoint" />
          </mxGeometry>
        </mxCell>
        <mxCell id="LZWmllExvn1Czz4eNUA1-158" value="" style="endArrow=none;html=1;rounded=0;entryX=0.5;entryY=0;entryDx=0;entryDy=0;exitX=0.5;exitY=1;exitDx=0;exitDy=0;" edge="1" parent="1" source="LZWmllExvn1Czz4eNUA1-152" target="LZWmllExvn1Czz4eNUA1-134">
          <mxGeometry width="50" height="50" relative="1" as="geometry">
            <mxPoint x="935" y="2190" as="sourcePoint" />
            <mxPoint x="640" y="2260" as="targetPoint" />
          </mxGeometry>
        </mxCell>
        <mxCell id="LZWmllExvn1Czz4eNUA1-159" value="&lt;font style=&quot;font-size: 20px;&quot;&gt;Employee&lt;/font&gt;" style="rounded=0;whiteSpace=wrap;html=1;" vertex="1" parent="1">
          <mxGeometry x="1420" y="2220" width="160" height="90" as="geometry" />
        </mxCell>
        <mxCell id="LZWmllExvn1Czz4eNUA1-160" value="Work for" style="rhombus;whiteSpace=wrap;html=1;" vertex="1" parent="1">
          <mxGeometry x="910" y="2190" width="80" height="80" as="geometry" />
        </mxCell>
        <mxCell id="LZWmllExvn1Czz4eNUA1-161" value="" style="endArrow=none;html=1;rounded=0;exitX=1;exitY=0.5;exitDx=0;exitDy=0;entryX=0;entryY=0.5;entryDx=0;entryDy=0;" edge="1" parent="1" source="LZWmllExvn1Czz4eNUA1-134" target="LZWmllExvn1Czz4eNUA1-160">
          <mxGeometry width="50" height="50" relative="1" as="geometry">
            <mxPoint x="910" y="2510" as="sourcePoint" />
            <mxPoint x="960" y="2460" as="targetPoint" />
          </mxGeometry>
        </mxCell>
        <mxCell id="LZWmllExvn1Czz4eNUA1-162" value="" style="endArrow=none;html=1;rounded=0;exitX=1;exitY=0.5;exitDx=0;exitDy=0;entryX=0;entryY=0.5;entryDx=0;entryDy=0;" edge="1" parent="1" source="LZWmllExvn1Czz4eNUA1-160" target="LZWmllExvn1Czz4eNUA1-159">
          <mxGeometry width="50" height="50" relative="1" as="geometry">
            <mxPoint x="790" y="2305" as="sourcePoint" />
            <mxPoint x="1200" y="2260" as="targetPoint" />
          </mxGeometry>
        </mxCell>
        <mxCell id="LZWmllExvn1Czz4eNUA1-163" value="&lt;u&gt;Code&lt;/u&gt;" style="ellipse;whiteSpace=wrap;html=1;" vertex="1" parent="1">
          <mxGeometry x="1190" y="2090" width="110" height="70" as="geometry" />
        </mxCell>
        <mxCell id="LZWmllExvn1Czz4eNUA1-164" value="Manage" style="rhombus;whiteSpace=wrap;html=1;" vertex="1" parent="1">
          <mxGeometry x="910" y="2370" width="80" height="80" as="geometry" />
        </mxCell>
        <mxCell id="LZWmllExvn1Czz4eNUA1-165" value="" style="endArrow=none;html=1;rounded=0;exitX=1;exitY=0.5;exitDx=0;exitDy=0;entryX=0;entryY=0.5;entryDx=0;entryDy=0;" edge="1" parent="1" source="LZWmllExvn1Czz4eNUA1-134" target="LZWmllExvn1Czz4eNUA1-164">
          <mxGeometry width="50" height="50" relative="1" as="geometry">
            <mxPoint x="890" y="2285" as="sourcePoint" />
            <mxPoint x="1360" y="2240" as="targetPoint" />
          </mxGeometry>
        </mxCell>
        <mxCell id="LZWmllExvn1Czz4eNUA1-166" value="" style="endArrow=none;html=1;rounded=0;exitX=1;exitY=0.5;exitDx=0;exitDy=0;entryX=0;entryY=0.75;entryDx=0;entryDy=0;" edge="1" parent="1" source="LZWmllExvn1Czz4eNUA1-164" target="LZWmllExvn1Czz4eNUA1-159">
          <mxGeometry width="50" height="50" relative="1" as="geometry">
            <mxPoint x="1140" y="2440" as="sourcePoint" />
            <mxPoint x="1610" y="2575" as="targetPoint" />
          </mxGeometry>
        </mxCell>
        <mxCell id="LZWmllExvn1Czz4eNUA1-167" value="&lt;font style=&quot;font-size: 16px;&quot;&gt;1&lt;/font&gt;" style="text;html=1;align=center;verticalAlign=middle;whiteSpace=wrap;rounded=0;rotation=-5;" vertex="1" parent="1">
          <mxGeometry x="830" y="2200" width="60" height="30" as="geometry" />
        </mxCell>
        <mxCell id="LZWmllExvn1Czz4eNUA1-168" value="&lt;font style=&quot;font-size: 16px;&quot;&gt;n&lt;/font&gt;" style="text;html=1;align=center;verticalAlign=middle;whiteSpace=wrap;rounded=0;rotation=5;" vertex="1" parent="1">
          <mxGeometry x="1000.0031770839673" y="2199.997592753806" width="60" height="30" as="geometry" />
        </mxCell>
        <mxCell id="LZWmllExvn1Czz4eNUA1-169" value="&lt;font style=&quot;font-size: 16px;&quot;&gt;1&lt;/font&gt;" style="text;html=1;align=center;verticalAlign=middle;whiteSpace=wrap;rounded=0;rotation=15;" vertex="1" parent="1">
          <mxGeometry x="840.0031770839673" y="2369.997592753806" width="60" height="30" as="geometry" />
        </mxCell>
        <mxCell id="LZWmllExvn1Czz4eNUA1-170" value="&lt;font style=&quot;font-size: 16px;&quot;&gt;1&lt;/font&gt;" style="text;html=1;align=center;verticalAlign=middle;whiteSpace=wrap;rounded=0;rotation=-20;" vertex="1" parent="1">
          <mxGeometry x="990.0000604652096" y="2370.0034587474115" width="60" height="30" as="geometry" />
        </mxCell>
        <mxCell id="LZWmllExvn1Czz4eNUA1-171" value="FName" style="ellipse;whiteSpace=wrap;html=1;" vertex="1" parent="1">
          <mxGeometry x="1350" y="2090" width="110" height="70" as="geometry" />
        </mxCell>
        <mxCell id="LZWmllExvn1Czz4eNUA1-172" value="LName" style="ellipse;whiteSpace=wrap;html=1;" vertex="1" parent="1">
          <mxGeometry x="1515" y="2095" width="110" height="70" as="geometry" />
        </mxCell>
        <mxCell id="LZWmllExvn1Czz4eNUA1-173" value="DOB" style="ellipse;whiteSpace=wrap;html=1;" vertex="1" parent="1">
          <mxGeometry x="1679" y="2095" width="110" height="70" as="geometry" />
        </mxCell>
        <mxCell id="LZWmllExvn1Czz4eNUA1-174" value="" style="ellipse;whiteSpace=wrap;html=1;" vertex="1" parent="1">
          <mxGeometry x="1845" y="2100" width="110" height="70" as="geometry" />
        </mxCell>
        <mxCell id="LZWmllExvn1Czz4eNUA1-175" value="Phone" style="ellipse;whiteSpace=wrap;html=1;" vertex="1" parent="1">
          <mxGeometry x="1850" y="2105" width="100" height="60" as="geometry" />
        </mxCell>
        <mxCell id="LZWmllExvn1Czz4eNUA1-176" value="Email" style="ellipse;whiteSpace=wrap;html=1;" vertex="1" parent="1">
          <mxGeometry x="2025" y="2100" width="110" height="70" as="geometry" />
        </mxCell>
        <mxCell id="LZWmllExvn1Czz4eNUA1-177" value="Address" style="ellipse;whiteSpace=wrap;html=1;" vertex="1" parent="1">
          <mxGeometry x="2205" y="2100" width="110" height="70" as="geometry" />
        </mxCell>
        <mxCell id="LZWmllExvn1Czz4eNUA1-178" value="No." style="ellipse;whiteSpace=wrap;html=1;" vertex="1" parent="1">
          <mxGeometry x="1905" y="1940" width="110" height="70" as="geometry" />
        </mxCell>
        <mxCell id="LZWmllExvn1Czz4eNUA1-179" value="Street" style="ellipse;whiteSpace=wrap;html=1;" vertex="1" parent="1">
          <mxGeometry x="2055" y="1940" width="110" height="70" as="geometry" />
        </mxCell>
        <mxCell id="LZWmllExvn1Czz4eNUA1-180" value="District" style="ellipse;whiteSpace=wrap;html=1;" vertex="1" parent="1">
          <mxGeometry x="2205" y="1940" width="110" height="70" as="geometry" />
        </mxCell>
        <mxCell id="LZWmllExvn1Czz4eNUA1-181" value="City" style="ellipse;whiteSpace=wrap;html=1;" vertex="1" parent="1">
          <mxGeometry x="2355" y="1940" width="110" height="70" as="geometry" />
        </mxCell>
        <mxCell id="LZWmllExvn1Czz4eNUA1-182" value="" style="endArrow=none;html=1;rounded=0;entryX=0.5;entryY=1;entryDx=0;entryDy=0;exitX=0.5;exitY=0;exitDx=0;exitDy=0;" edge="1" parent="1" source="LZWmllExvn1Czz4eNUA1-177" target="LZWmllExvn1Czz4eNUA1-178">
          <mxGeometry width="50" height="50" relative="1" as="geometry">
            <mxPoint x="2315" y="2150" as="sourcePoint" />
            <mxPoint x="2365" y="2100" as="targetPoint" />
          </mxGeometry>
        </mxCell>
        <mxCell id="LZWmllExvn1Czz4eNUA1-183" value="" style="endArrow=none;html=1;rounded=0;entryX=0.5;entryY=1;entryDx=0;entryDy=0;exitX=0.5;exitY=0;exitDx=0;exitDy=0;" edge="1" parent="1" source="LZWmllExvn1Czz4eNUA1-177" target="LZWmllExvn1Czz4eNUA1-179">
          <mxGeometry width="50" height="50" relative="1" as="geometry">
            <mxPoint x="2555" y="2180" as="sourcePoint" />
            <mxPoint x="2255" y="2090" as="targetPoint" />
          </mxGeometry>
        </mxCell>
        <mxCell id="LZWmllExvn1Czz4eNUA1-184" value="" style="endArrow=none;html=1;rounded=0;entryX=0.5;entryY=1;entryDx=0;entryDy=0;exitX=0.5;exitY=0;exitDx=0;exitDy=0;" edge="1" parent="1" source="LZWmllExvn1Czz4eNUA1-177" target="LZWmllExvn1Czz4eNUA1-180">
          <mxGeometry width="50" height="50" relative="1" as="geometry">
            <mxPoint x="2405" y="2190" as="sourcePoint" />
            <mxPoint x="2255" y="2100" as="targetPoint" />
          </mxGeometry>
        </mxCell>
        <mxCell id="LZWmllExvn1Czz4eNUA1-185" value="" style="endArrow=none;html=1;rounded=0;entryX=0.5;entryY=1;entryDx=0;entryDy=0;exitX=0.5;exitY=0;exitDx=0;exitDy=0;" edge="1" parent="1" source="LZWmllExvn1Czz4eNUA1-177" target="LZWmllExvn1Czz4eNUA1-181">
          <mxGeometry width="50" height="50" relative="1" as="geometry">
            <mxPoint x="2255" y="2190" as="sourcePoint" />
            <mxPoint x="2255" y="2100" as="targetPoint" />
          </mxGeometry>
        </mxCell>
        <mxCell id="LZWmllExvn1Czz4eNUA1-186" value="" style="endArrow=none;html=1;rounded=0;entryX=0.5;entryY=1;entryDx=0;entryDy=0;exitX=0.5;exitY=0;exitDx=0;exitDy=0;" edge="1" parent="1" source="LZWmllExvn1Czz4eNUA1-159" target="LZWmllExvn1Czz4eNUA1-163">
          <mxGeometry width="50" height="50" relative="1" as="geometry">
            <mxPoint x="1340" y="2290" as="sourcePoint" />
            <mxPoint x="1390" y="2240" as="targetPoint" />
          </mxGeometry>
        </mxCell>
        <mxCell id="LZWmllExvn1Czz4eNUA1-187" value="" style="endArrow=none;html=1;rounded=0;entryX=0.5;entryY=1;entryDx=0;entryDy=0;exitX=0.5;exitY=0;exitDx=0;exitDy=0;" edge="1" parent="1" source="LZWmllExvn1Czz4eNUA1-159" target="LZWmllExvn1Czz4eNUA1-171">
          <mxGeometry width="50" height="50" relative="1" as="geometry">
            <mxPoint x="1755" y="2280" as="sourcePoint" />
            <mxPoint x="1500" y="2220" as="targetPoint" />
          </mxGeometry>
        </mxCell>
        <mxCell id="LZWmllExvn1Czz4eNUA1-188" value="" style="endArrow=none;html=1;rounded=0;entryX=0.5;entryY=1;entryDx=0;entryDy=0;exitX=0.5;exitY=0;exitDx=0;exitDy=0;" edge="1" parent="1" source="LZWmllExvn1Czz4eNUA1-159" target="LZWmllExvn1Czz4eNUA1-172">
          <mxGeometry width="50" height="50" relative="1" as="geometry">
            <mxPoint x="1595" y="2280" as="sourcePoint" />
            <mxPoint x="1500" y="2220" as="targetPoint" />
          </mxGeometry>
        </mxCell>
        <mxCell id="LZWmllExvn1Czz4eNUA1-189" value="" style="endArrow=none;html=1;rounded=0;entryX=0.5;entryY=1;entryDx=0;entryDy=0;exitX=0.5;exitY=0;exitDx=0;exitDy=0;" edge="1" parent="1" source="LZWmllExvn1Czz4eNUA1-159" target="LZWmllExvn1Czz4eNUA1-173">
          <mxGeometry width="50" height="50" relative="1" as="geometry">
            <mxPoint x="1560" y="2275" as="sourcePoint" />
            <mxPoint x="1630" y="2220" as="targetPoint" />
          </mxGeometry>
        </mxCell>
        <mxCell id="LZWmllExvn1Czz4eNUA1-190" value="" style="endArrow=none;html=1;rounded=0;entryX=0.5;entryY=1;entryDx=0;entryDy=0;exitX=0.5;exitY=0;exitDx=0;exitDy=0;" edge="1" parent="1" source="LZWmllExvn1Czz4eNUA1-159" target="LZWmllExvn1Czz4eNUA1-174">
          <mxGeometry width="50" height="50" relative="1" as="geometry">
            <mxPoint x="1750" y="2305" as="sourcePoint" />
            <mxPoint x="1984" y="2250" as="targetPoint" />
          </mxGeometry>
        </mxCell>
        <mxCell id="LZWmllExvn1Czz4eNUA1-191" value="" style="endArrow=none;html=1;rounded=0;entryX=0.5;entryY=1;entryDx=0;entryDy=0;exitX=0.5;exitY=0;exitDx=0;exitDy=0;" edge="1" parent="1" source="LZWmllExvn1Czz4eNUA1-159" target="LZWmllExvn1Czz4eNUA1-176">
          <mxGeometry width="50" height="50" relative="1" as="geometry">
            <mxPoint x="1870" y="2320" as="sourcePoint" />
            <mxPoint x="2270" y="2270" as="targetPoint" />
          </mxGeometry>
        </mxCell>
        <mxCell id="LZWmllExvn1Czz4eNUA1-192" value="" style="endArrow=none;html=1;rounded=0;entryX=0.5;entryY=1;entryDx=0;entryDy=0;exitX=0.5;exitY=0;exitDx=0;exitDy=0;" edge="1" parent="1" source="LZWmllExvn1Czz4eNUA1-159" target="LZWmllExvn1Czz4eNUA1-177">
          <mxGeometry width="50" height="50" relative="1" as="geometry">
            <mxPoint x="1740" y="2330" as="sourcePoint" />
            <mxPoint x="2320" y="2280" as="targetPoint" />
          </mxGeometry>
        </mxCell>
        <mxCell id="LZWmllExvn1Czz4eNUA1-193" value="&lt;font style=&quot;font-size: 20px;&quot;&gt;Account&lt;/font&gt;" style="rounded=0;whiteSpace=wrap;html=1;" vertex="1" parent="1">
          <mxGeometry x="275" y="2750" width="160" height="90" as="geometry" />
        </mxCell>
        <mxCell id="LZWmllExvn1Czz4eNUA1-194" value="&lt;u&gt;Number&lt;/u&gt;" style="ellipse;whiteSpace=wrap;html=1;" vertex="1" parent="1">
          <mxGeometry x="-10" y="2760" width="110" height="70" as="geometry" />
        </mxCell>
        <mxCell id="LZWmllExvn1Czz4eNUA1-195" value="" style="endArrow=none;html=1;rounded=0;" edge="1" parent="1" source="LZWmllExvn1Czz4eNUA1-194" target="LZWmllExvn1Czz4eNUA1-193">
          <mxGeometry width="50" height="50" relative="1" as="geometry">
            <mxPoint x="310" y="2840" as="sourcePoint" />
            <mxPoint x="360" y="2790" as="targetPoint" />
          </mxGeometry>
        </mxCell>
        <mxCell id="LZWmllExvn1Czz4eNUA1-196" value="d" style="ellipse;whiteSpace=wrap;html=1;aspect=fixed;" vertex="1" parent="1">
          <mxGeometry x="315" y="2950" width="80" height="80" as="geometry" />
        </mxCell>
        <mxCell id="LZWmllExvn1Czz4eNUA1-197" value="" style="endArrow=none;html=1;rounded=0;exitX=0.422;exitY=0.013;exitDx=0;exitDy=0;exitPerimeter=0;entryX=0.463;entryY=0.996;entryDx=0;entryDy=0;entryPerimeter=0;" edge="1" parent="1" source="LZWmllExvn1Czz4eNUA1-196" target="LZWmllExvn1Czz4eNUA1-193">
          <mxGeometry width="50" height="50" relative="1" as="geometry">
            <mxPoint x="340" y="2950" as="sourcePoint" />
            <mxPoint x="339" y="2840" as="targetPoint" />
          </mxGeometry>
        </mxCell>
        <mxCell id="LZWmllExvn1Czz4eNUA1-198" value="" style="endArrow=none;html=1;rounded=0;entryX=0.532;entryY=1;entryDx=0;entryDy=0;entryPerimeter=0;" edge="1" parent="1" target="LZWmllExvn1Czz4eNUA1-193">
          <mxGeometry width="50" height="50" relative="1" as="geometry">
            <mxPoint x="360" y="2950" as="sourcePoint" />
            <mxPoint x="360" y="2860" as="targetPoint" />
          </mxGeometry>
        </mxCell>
        <mxCell id="LZWmllExvn1Czz4eNUA1-199" value="&lt;font style=&quot;font-size: 20px;&quot;&gt;SavingAccount&lt;/font&gt;" style="rounded=0;whiteSpace=wrap;html=1;" vertex="1" parent="1">
          <mxGeometry x="-120" y="3150" width="160" height="90" as="geometry" />
        </mxCell>
        <mxCell id="LZWmllExvn1Czz4eNUA1-200" value="&lt;font style=&quot;font-size: 20px;&quot;&gt;CheckingAccount&lt;/font&gt;" style="rounded=0;whiteSpace=wrap;html=1;" vertex="1" parent="1">
          <mxGeometry x="265" y="3150" width="180" height="90" as="geometry" />
        </mxCell>
        <mxCell id="LZWmllExvn1Czz4eNUA1-201" value="Balance" style="ellipse;whiteSpace=wrap;html=1;" vertex="1" parent="1">
          <mxGeometry x="-240" y="3380" width="110" height="70" as="geometry" />
        </mxCell>
        <mxCell id="LZWmllExvn1Czz4eNUA1-202" value="InterestRate" style="ellipse;whiteSpace=wrap;html=1;" vertex="1" parent="1">
          <mxGeometry x="-95" y="3380" width="110" height="70" as="geometry" />
        </mxCell>
        <mxCell id="LZWmllExvn1Czz4eNUA1-203" value="OpenedDate" style="ellipse;whiteSpace=wrap;html=1;" vertex="1" parent="1">
          <mxGeometry x="40" y="3380" width="110" height="70" as="geometry" />
        </mxCell>
        <mxCell id="LZWmllExvn1Czz4eNUA1-204" value="" style="endArrow=none;html=1;rounded=0;entryX=0.5;entryY=1;entryDx=0;entryDy=0;exitX=0.5;exitY=0;exitDx=0;exitDy=0;" edge="1" parent="1" source="LZWmllExvn1Czz4eNUA1-201" target="LZWmllExvn1Czz4eNUA1-199">
          <mxGeometry width="50" height="50" relative="1" as="geometry">
            <mxPoint x="-20" y="3340" as="sourcePoint" />
            <mxPoint x="30" y="3290" as="targetPoint" />
          </mxGeometry>
        </mxCell>
        <mxCell id="LZWmllExvn1Czz4eNUA1-205" value="" style="endArrow=none;html=1;rounded=0;entryX=0.5;entryY=1;entryDx=0;entryDy=0;" edge="1" parent="1" source="LZWmllExvn1Czz4eNUA1-202" target="LZWmllExvn1Czz4eNUA1-199">
          <mxGeometry width="50" height="50" relative="1" as="geometry">
            <mxPoint x="-190" y="3360" as="sourcePoint" />
            <mxPoint x="-45" y="3300" as="targetPoint" />
          </mxGeometry>
        </mxCell>
        <mxCell id="LZWmllExvn1Czz4eNUA1-206" value="" style="endArrow=none;html=1;rounded=0;entryX=0.5;entryY=1;entryDx=0;entryDy=0;exitX=0.5;exitY=0;exitDx=0;exitDy=0;" edge="1" parent="1" source="LZWmllExvn1Czz4eNUA1-203" target="LZWmllExvn1Czz4eNUA1-199">
          <mxGeometry width="50" height="50" relative="1" as="geometry">
            <mxPoint x="-70" y="3370" as="sourcePoint" />
            <mxPoint x="-70" y="3310" as="targetPoint" />
          </mxGeometry>
        </mxCell>
        <mxCell id="LZWmllExvn1Czz4eNUA1-207" value="Balance" style="ellipse;whiteSpace=wrap;html=1;" vertex="1" parent="1">
          <mxGeometry x="210" y="3380" width="110" height="70" as="geometry" />
        </mxCell>
        <mxCell id="LZWmllExvn1Czz4eNUA1-208" value="OpenedDate" style="ellipse;whiteSpace=wrap;html=1;" vertex="1" parent="1">
          <mxGeometry x="390" y="3380" width="110" height="70" as="geometry" />
        </mxCell>
        <mxCell id="LZWmllExvn1Czz4eNUA1-209" value="" style="endArrow=none;html=1;rounded=0;entryX=0.5;entryY=1;entryDx=0;entryDy=0;exitX=0.5;exitY=0;exitDx=0;exitDy=0;" edge="1" parent="1" source="LZWmllExvn1Czz4eNUA1-207" target="LZWmllExvn1Czz4eNUA1-200">
          <mxGeometry width="50" height="50" relative="1" as="geometry">
            <mxPoint x="50" y="3400" as="sourcePoint" />
            <mxPoint x="195" y="3260" as="targetPoint" />
          </mxGeometry>
        </mxCell>
        <mxCell id="LZWmllExvn1Czz4eNUA1-210" value="" style="endArrow=none;html=1;rounded=0;entryX=0.5;entryY=1;entryDx=0;entryDy=0;exitX=0.5;exitY=0;exitDx=0;exitDy=0;" edge="1" parent="1" source="LZWmllExvn1Czz4eNUA1-208" target="LZWmllExvn1Czz4eNUA1-200">
          <mxGeometry width="50" height="50" relative="1" as="geometry">
            <mxPoint x="270" y="3520" as="sourcePoint" />
            <mxPoint x="360" y="3380" as="targetPoint" />
          </mxGeometry>
        </mxCell>
        <mxCell id="LZWmllExvn1Czz4eNUA1-211" value="&lt;font style=&quot;font-size: 20px;&quot;&gt;Loan&lt;/font&gt;" style="rounded=0;whiteSpace=wrap;html=1;" vertex="1" parent="1">
          <mxGeometry x="720" y="3150" width="180" height="90" as="geometry" />
        </mxCell>
        <mxCell id="LZWmllExvn1Czz4eNUA1-212" value="TakenDate" style="ellipse;whiteSpace=wrap;html=1;" vertex="1" parent="1">
          <mxGeometry x="590" y="3380" width="110" height="70" as="geometry" />
        </mxCell>
        <mxCell id="LZWmllExvn1Czz4eNUA1-213" value="BalanceDate" style="ellipse;whiteSpace=wrap;html=1;" vertex="1" parent="1">
          <mxGeometry x="755" y="3380" width="110" height="70" as="geometry" />
        </mxCell>
        <mxCell id="LZWmllExvn1Czz4eNUA1-214" value="BalanceDate" style="ellipse;whiteSpace=wrap;html=1;" vertex="1" parent="1">
          <mxGeometry x="947" y="3380" width="110" height="70" as="geometry" />
        </mxCell>
        <mxCell id="LZWmllExvn1Czz4eNUA1-215" value="" style="endArrow=none;html=1;rounded=0;entryX=0.5;entryY=1;entryDx=0;entryDy=0;exitX=0.5;exitY=0;exitDx=0;exitDy=0;" edge="1" parent="1" source="LZWmllExvn1Czz4eNUA1-212" target="LZWmllExvn1Czz4eNUA1-211">
          <mxGeometry width="50" height="50" relative="1" as="geometry">
            <mxPoint x="810" y="3390" as="sourcePoint" />
            <mxPoint x="860" y="3340" as="targetPoint" />
          </mxGeometry>
        </mxCell>
        <mxCell id="LZWmllExvn1Czz4eNUA1-216" value="" style="endArrow=none;html=1;rounded=0;entryX=0.5;entryY=1;entryDx=0;entryDy=0;" edge="1" parent="1" source="LZWmllExvn1Czz4eNUA1-213" target="LZWmllExvn1Czz4eNUA1-211">
          <mxGeometry width="50" height="50" relative="1" as="geometry">
            <mxPoint x="830" y="3450" as="sourcePoint" />
            <mxPoint x="995" y="3310" as="targetPoint" />
          </mxGeometry>
        </mxCell>
        <mxCell id="LZWmllExvn1Czz4eNUA1-217" value="" style="endArrow=none;html=1;rounded=0;entryX=0.5;entryY=1;entryDx=0;entryDy=0;exitX=0.5;exitY=0;exitDx=0;exitDy=0;" edge="1" parent="1" source="LZWmllExvn1Czz4eNUA1-214" target="LZWmllExvn1Czz4eNUA1-211">
          <mxGeometry width="50" height="50" relative="1" as="geometry">
            <mxPoint x="975" y="3380" as="sourcePoint" />
            <mxPoint x="850" y="3310" as="targetPoint" />
          </mxGeometry>
        </mxCell>
        <mxCell id="LZWmllExvn1Czz4eNUA1-218" value="" style="endArrow=none;html=1;rounded=0;entryX=0.5;entryY=1;entryDx=0;entryDy=0;exitX=0.5;exitY=0;exitDx=0;exitDy=0;" edge="1" parent="1" source="LZWmllExvn1Czz4eNUA1-200" target="LZWmllExvn1Czz4eNUA1-196">
          <mxGeometry width="50" height="50" relative="1" as="geometry">
            <mxPoint x="360" y="3250" as="sourcePoint" />
            <mxPoint x="410" y="3200" as="targetPoint" />
          </mxGeometry>
        </mxCell>
        <mxCell id="LZWmllExvn1Czz4eNUA1-219" value="" style="endArrow=none;html=1;rounded=0;entryX=0.5;entryY=1;entryDx=0;entryDy=0;exitX=0.5;exitY=0;exitDx=0;exitDy=0;" edge="1" parent="1" source="LZWmllExvn1Czz4eNUA1-199" target="LZWmllExvn1Czz4eNUA1-196">
          <mxGeometry width="50" height="50" relative="1" as="geometry">
            <mxPoint x="360" y="3210" as="sourcePoint" />
            <mxPoint x="360" y="3090" as="targetPoint" />
          </mxGeometry>
        </mxCell>
        <mxCell id="LZWmllExvn1Czz4eNUA1-220" value="" style="endArrow=none;html=1;rounded=0;entryX=0.5;entryY=1;entryDx=0;entryDy=0;exitX=0.5;exitY=0;exitDx=0;exitDy=0;" edge="1" parent="1" source="LZWmllExvn1Czz4eNUA1-211" target="LZWmllExvn1Czz4eNUA1-196">
          <mxGeometry width="50" height="50" relative="1" as="geometry">
            <mxPoint x="-50" y="3260" as="sourcePoint" />
            <mxPoint x="345" y="3140" as="targetPoint" />
          </mxGeometry>
        </mxCell>
        <mxCell id="LZWmllExvn1Czz4eNUA1-221" value="&lt;font style=&quot;font-size: 20px;&quot;&gt;Customer&lt;/font&gt;" style="rounded=0;whiteSpace=wrap;html=1;" vertex="1" parent="1">
          <mxGeometry x="1420" y="2750" width="160" height="90" as="geometry" />
        </mxCell>
        <mxCell id="LZWmllExvn1Czz4eNUA1-222" value="Has" style="rhombus;whiteSpace=wrap;html=1;" vertex="1" parent="1">
          <mxGeometry x="910" y="2755" width="80" height="80" as="geometry" />
        </mxCell>
        <mxCell id="LZWmllExvn1Czz4eNUA1-223" value="" style="endArrow=none;html=1;rounded=0;" edge="1" parent="1">
          <mxGeometry width="50" height="50" relative="1" as="geometry">
            <mxPoint x="1420" y="2272" as="sourcePoint" />
            <mxPoint x="980" y="2240" as="targetPoint" />
          </mxGeometry>
        </mxCell>
        <mxCell id="LZWmllExvn1Czz4eNUA1-224" value="" style="endArrow=none;html=1;rounded=0;entryX=0.995;entryY=0.658;entryDx=0;entryDy=0;entryPerimeter=0;exitX=0;exitY=1;exitDx=0;exitDy=0;" edge="1" parent="1" source="LZWmllExvn1Czz4eNUA1-164" target="LZWmllExvn1Czz4eNUA1-134">
          <mxGeometry width="50" height="50" relative="1" as="geometry">
            <mxPoint x="990" y="2442" as="sourcePoint" />
            <mxPoint x="550" y="2410" as="targetPoint" />
          </mxGeometry>
        </mxCell>
        <mxCell id="LZWmllExvn1Czz4eNUA1-225" value="" style="endArrow=none;html=1;rounded=0;entryX=0.997;entryY=0.555;entryDx=0;entryDy=0;exitX=0.067;exitY=0.567;exitDx=0;exitDy=0;exitPerimeter=0;entryPerimeter=0;" edge="1" parent="1" source="LZWmllExvn1Czz4eNUA1-222" target="LZWmllExvn1Czz4eNUA1-193">
          <mxGeometry width="50" height="50" relative="1" as="geometry">
            <mxPoint x="1175" y="3140" as="sourcePoint" />
            <mxPoint x="720" y="3020" as="targetPoint" />
          </mxGeometry>
        </mxCell>
        <mxCell id="LZWmllExvn1Czz4eNUA1-226" value="" style="endArrow=none;html=1;rounded=0;exitX=0.056;exitY=0.438;exitDx=0;exitDy=0;exitPerimeter=0;entryX=0.995;entryY=0.436;entryDx=0;entryDy=0;entryPerimeter=0;" edge="1" parent="1" source="LZWmllExvn1Czz4eNUA1-222" target="LZWmllExvn1Czz4eNUA1-193">
          <mxGeometry width="50" height="50" relative="1" as="geometry">
            <mxPoint x="916" y="2780" as="sourcePoint" />
            <mxPoint x="440" y="2790" as="targetPoint" />
          </mxGeometry>
        </mxCell>
        <mxCell id="LZWmllExvn1Czz4eNUA1-227" value="" style="endArrow=none;html=1;rounded=0;entryX=1;entryY=0.5;entryDx=0;entryDy=0;exitX=0;exitY=0.5;exitDx=0;exitDy=0;" edge="1" parent="1" source="LZWmllExvn1Czz4eNUA1-221" target="LZWmllExvn1Czz4eNUA1-222">
          <mxGeometry width="50" height="50" relative="1" as="geometry">
            <mxPoint x="1580" y="2900" as="sourcePoint" />
            <mxPoint x="1100" y="2900" as="targetPoint" />
          </mxGeometry>
        </mxCell>
        <mxCell id="LZWmllExvn1Czz4eNUA1-228" value="&lt;font style=&quot;font-size: 16px;&quot;&gt;1&lt;/font&gt;" style="text;html=1;align=center;verticalAlign=middle;whiteSpace=wrap;rounded=0;rotation=0;" vertex="1" parent="1">
          <mxGeometry x="990.0000604652096" y="2760.0034587474115" width="60" height="30" as="geometry" />
        </mxCell>
        <mxCell id="LZWmllExvn1Czz4eNUA1-229" value="&lt;font style=&quot;font-size: 16px;&quot;&gt;n&lt;/font&gt;" style="text;html=1;align=center;verticalAlign=middle;whiteSpace=wrap;rounded=0;rotation=0;" vertex="1" parent="1">
          <mxGeometry x="840.0031770839673" y="2754.997592753806" width="60" height="30" as="geometry" />
        </mxCell>
        <mxCell id="LZWmllExvn1Czz4eNUA1-230" value="&lt;u&gt;Code&lt;/u&gt;" style="ellipse;whiteSpace=wrap;html=1;" vertex="1" parent="1">
          <mxGeometry x="1050" y="2910" width="110" height="70" as="geometry" />
        </mxCell>
        <mxCell id="LZWmllExvn1Czz4eNUA1-231" value="FName" style="ellipse;whiteSpace=wrap;html=1;" vertex="1" parent="1">
          <mxGeometry x="1210" y="2910" width="110" height="70" as="geometry" />
        </mxCell>
        <mxCell id="LZWmllExvn1Czz4eNUA1-232" value="LName" style="ellipse;whiteSpace=wrap;html=1;" vertex="1" parent="1">
          <mxGeometry x="1370" y="2910" width="110" height="70" as="geometry" />
        </mxCell>
        <mxCell id="LZWmllExvn1Czz4eNUA1-233" value="HomeAddress" style="ellipse;whiteSpace=wrap;html=1;" vertex="1" parent="1">
          <mxGeometry x="1535" y="2910" width="110" height="70" as="geometry" />
        </mxCell>
        <mxCell id="LZWmllExvn1Czz4eNUA1-234" value="OfficeAddress" style="ellipse;whiteSpace=wrap;html=1;" vertex="1" parent="1">
          <mxGeometry x="1684" y="2910" width="110" height="70" as="geometry" />
        </mxCell>
        <mxCell id="LZWmllExvn1Czz4eNUA1-235" value="" style="ellipse;whiteSpace=wrap;html=1;" vertex="1" parent="1">
          <mxGeometry x="1857" y="2910" width="110" height="70" as="geometry" />
        </mxCell>
        <mxCell id="LZWmllExvn1Czz4eNUA1-236" value="Phone" style="ellipse;whiteSpace=wrap;html=1;" vertex="1" parent="1">
          <mxGeometry x="1862" y="2915" width="100" height="60" as="geometry" />
        </mxCell>
        <mxCell id="LZWmllExvn1Czz4eNUA1-237" value="Email" style="ellipse;whiteSpace=wrap;html=1;" vertex="1" parent="1">
          <mxGeometry x="2032" y="2910" width="110" height="70" as="geometry" />
        </mxCell>
        <mxCell id="LZWmllExvn1Czz4eNUA1-238" value="" style="endArrow=none;html=1;rounded=0;entryX=0.5;entryY=1;entryDx=0;entryDy=0;exitX=0.5;exitY=0;exitDx=0;exitDy=0;" edge="1" parent="1" source="LZWmllExvn1Czz4eNUA1-230" target="LZWmllExvn1Czz4eNUA1-221">
          <mxGeometry width="50" height="50" relative="1" as="geometry">
            <mxPoint x="970" y="2890" as="sourcePoint" />
            <mxPoint x="1020" y="2840" as="targetPoint" />
          </mxGeometry>
        </mxCell>
        <mxCell id="LZWmllExvn1Czz4eNUA1-239" value="" style="endArrow=none;html=1;rounded=0;entryX=0.5;entryY=1;entryDx=0;entryDy=0;exitX=0.5;exitY=0;exitDx=0;exitDy=0;" edge="1" parent="1" source="LZWmllExvn1Czz4eNUA1-231" target="LZWmllExvn1Czz4eNUA1-221">
          <mxGeometry width="50" height="50" relative="1" as="geometry">
            <mxPoint x="1160" y="2970" as="sourcePoint" />
            <mxPoint x="1555" y="2900" as="targetPoint" />
          </mxGeometry>
        </mxCell>
        <mxCell id="LZWmllExvn1Czz4eNUA1-240" value="" style="endArrow=none;html=1;rounded=0;entryX=0.5;entryY=1;entryDx=0;entryDy=0;exitX=0.5;exitY=0;exitDx=0;exitDy=0;" edge="1" parent="1" source="LZWmllExvn1Czz4eNUA1-232" target="LZWmllExvn1Czz4eNUA1-221">
          <mxGeometry width="50" height="50" relative="1" as="geometry">
            <mxPoint x="1500" y="2900" as="sourcePoint" />
            <mxPoint x="1735" y="2830" as="targetPoint" />
          </mxGeometry>
        </mxCell>
        <mxCell id="LZWmllExvn1Czz4eNUA1-241" value="" style="endArrow=none;html=1;rounded=0;entryX=0.5;entryY=1;entryDx=0;entryDy=0;exitX=0.5;exitY=0;exitDx=0;exitDy=0;" edge="1" parent="1" source="LZWmllExvn1Czz4eNUA1-233" target="LZWmllExvn1Czz4eNUA1-221">
          <mxGeometry width="50" height="50" relative="1" as="geometry">
            <mxPoint x="1500" y="2910" as="sourcePoint" />
            <mxPoint x="1575" y="2840" as="targetPoint" />
          </mxGeometry>
        </mxCell>
        <mxCell id="LZWmllExvn1Czz4eNUA1-242" value="" style="endArrow=none;html=1;rounded=0;entryX=0.5;entryY=1;entryDx=0;entryDy=0;exitX=0.5;exitY=0;exitDx=0;exitDy=0;" edge="1" parent="1" source="LZWmllExvn1Czz4eNUA1-234" target="LZWmllExvn1Czz4eNUA1-221">
          <mxGeometry width="50" height="50" relative="1" as="geometry">
            <mxPoint x="1730" y="2970" as="sourcePoint" />
            <mxPoint x="1640" y="2900" as="targetPoint" />
          </mxGeometry>
        </mxCell>
        <mxCell id="LZWmllExvn1Czz4eNUA1-243" value="" style="endArrow=none;html=1;rounded=0;entryX=0.5;entryY=1;entryDx=0;entryDy=0;exitX=0.5;exitY=0;exitDx=0;exitDy=0;" edge="1" parent="1" source="LZWmllExvn1Czz4eNUA1-235" target="LZWmllExvn1Czz4eNUA1-221">
          <mxGeometry width="50" height="50" relative="1" as="geometry">
            <mxPoint x="2189" y="2930" as="sourcePoint" />
            <mxPoint x="1950" y="2860" as="targetPoint" />
          </mxGeometry>
        </mxCell>
        <mxCell id="LZWmllExvn1Czz4eNUA1-244" value="" style="endArrow=none;html=1;rounded=0;entryX=0.5;entryY=1;entryDx=0;entryDy=0;exitX=0.5;exitY=0;exitDx=0;exitDy=0;" edge="1" parent="1" source="LZWmllExvn1Czz4eNUA1-237" target="LZWmllExvn1Czz4eNUA1-221">
          <mxGeometry width="50" height="50" relative="1" as="geometry">
            <mxPoint x="2282" y="2820" as="sourcePoint" />
            <mxPoint x="1870" y="2750" as="targetPoint" />
          </mxGeometry>
        </mxCell>
        <mxCell id="LZWmllExvn1Czz4eNUA1-245" value="attended by" style="rhombus;whiteSpace=wrap;html=1;" vertex="1" parent="1">
          <mxGeometry x="1460" y="2480" width="80" height="80" as="geometry" />
        </mxCell>
        <mxCell id="LZWmllExvn1Czz4eNUA1-246" value="" style="endArrow=none;html=1;rounded=0;exitX=0.5;exitY=0;exitDx=0;exitDy=0;entryX=0.5;entryY=1;entryDx=0;entryDy=0;" edge="1" parent="1" source="LZWmllExvn1Czz4eNUA1-245" target="LZWmllExvn1Czz4eNUA1-159">
          <mxGeometry width="50" height="50" relative="1" as="geometry">
            <mxPoint x="1590" y="2492" as="sourcePoint" />
            <mxPoint x="2020" y="2370" as="targetPoint" />
          </mxGeometry>
        </mxCell>
        <mxCell id="LZWmllExvn1Czz4eNUA1-247" value="" style="endArrow=none;html=1;rounded=0;exitX=0.5;exitY=0;exitDx=0;exitDy=0;entryX=0.5;entryY=1;entryDx=0;entryDy=0;" edge="1" parent="1" source="LZWmllExvn1Czz4eNUA1-221" target="LZWmllExvn1Czz4eNUA1-245">
          <mxGeometry width="50" height="50" relative="1" as="geometry">
            <mxPoint x="1600" y="2550" as="sourcePoint" />
            <mxPoint x="1600" y="2380" as="targetPoint" />
          </mxGeometry>
        </mxCell>
        <mxCell id="LZWmllExvn1Czz4eNUA1-248" value="&lt;font style=&quot;font-size: 16px;&quot;&gt;1&lt;/font&gt;" style="text;html=1;align=center;verticalAlign=middle;whiteSpace=wrap;rounded=0;rotation=0;" vertex="1" parent="1">
          <mxGeometry x="1490" y="2430" width="60" height="30" as="geometry" />
        </mxCell>
        <mxCell id="LZWmllExvn1Czz4eNUA1-249" value="&lt;font style=&quot;font-size: 16px;&quot;&gt;n&lt;/font&gt;" style="text;html=1;align=center;verticalAlign=middle;whiteSpace=wrap;rounded=0;rotation=0;" vertex="1" parent="1">
          <mxGeometry x="1490" y="2580" width="60" height="30" as="geometry" />
        </mxCell>
        <mxCell id="LZWmllExvn1Czz4eNUA1-250" value="" style="shape=requiredInterface;html=1;verticalLabelPosition=bottom;sketch=0;rotation=-195;" vertex="1" parent="1">
          <mxGeometry x="182.30000000000018" y="3060" width="45.4" height="30" as="geometry" />
        </mxCell>
        <mxCell id="LZWmllExvn1Czz4eNUA1-251" value="" style="shape=requiredInterface;html=1;verticalLabelPosition=bottom;sketch=0;rotation=90;" vertex="1" parent="1">
          <mxGeometry x="332.2988019332997" y="3060.0040797181637" width="45.4" height="30" as="geometry" />
        </mxCell>
        <mxCell id="LZWmllExvn1Czz4eNUA1-252" value="" style="shape=requiredInterface;html=1;verticalLabelPosition=bottom;sketch=0;rotation=10;" vertex="1" parent="1">
          <mxGeometry x="500" y="3060" width="45.4" height="30" as="geometry" />
        </mxCell>
      </root>
    </mxGraphModel>
  </diagram>
</mxfile>
